<svg width="131" height="38" viewBox="0 0 131 38" fill="none" xmlns="http://www.w3.org/2000/svg">
<g clip-path="url(#clip0_1_2662)">
<mask id="mask0_1_2662" style="mask-type:luminance" maskUnits="userSpaceOnUse" x="0" y="0" width="131" height="38">
<path d="M130.852 0H0V38H130.852V0Z" fill="white"/>
</mask>
<g mask="url(#mask0_1_2662)">
<path d="M36.8706 19.2204C36.8706 29.2161 28.7749 37.3117 18.7793 37.3117C8.78364 37.3117 0.687988 29.2161 0.687988 19.2204C0.687988 9.22475 8.78364 1.10156 18.7518 1.10156C28.7474 1.10156 36.8706 9.22475 36.8706 19.2204Z" fill="white"/>
<path d="M123.527 26.4072C122.26 25.9391 121.957 25.7188 121.599 24.9203L112.733 7.26953H109.043L99.1299 25.2507C98.7719 25.9391 98.4415 26.0768 97.6154 26.3797L95.3574 27.0681V29.7116H106.372V27.013L103.921 26.3797C103.398 26.242 103.426 25.9116 103.536 25.6637C103.536 25.6637 103.866 25.0579 104.334 24.1492H113.559C114.055 25.0855 114.165 25.2507 114.33 25.5811C114.55 26.0768 114.11 26.2971 113.531 26.4623L111.328 27.0681V29.7116H125.455V27.1232C125.482 27.1232 123.527 26.4072 123.527 26.4072ZM105.463 22.0014C106.895 19.2478 108.933 15.3376 109.07 15.0623C109.208 15.3927 111.053 19.2203 112.43 22.0014H105.463Z" fill="#BE9F56"/>
<path d="M94.9995 21.313L97.1749 20.6796V17.926H82.9662V20.6796L85.1415 21.313C86.6836 21.7811 86.7662 21.9738 86.7662 23.213V26.9579C85.9952 27.1231 84.5082 27.1231 83.5444 26.9854C78.3951 26.242 76.9908 22.442 76.9908 18.4767C76.9908 16.2463 77.7343 14.2086 79.4415 12.584C80.6531 11.3999 82.5256 10.3535 85.3343 10.4362C86.5734 10.4912 87.9778 11.0695 88.4734 11.3999C89.8778 12.3912 90.2082 13.5478 90.5937 14.9521H94.2285L94.2009 9.36224C94.2009 9.36224 90.5386 6.85645 84.1778 6.85645C79.1386 6.85645 69.2256 8.94919 69.2256 18.8072C69.2256 24.8651 74.3198 29.5738 83.1589 30.0144C89.2444 30.3173 93.3749 28.5275 93.3749 28.5275V23.213C93.4024 21.9738 93.4575 21.8086 94.9995 21.313Z" fill="#BE9F56"/>
<path d="M59.8633 7.43504C58.7894 7.3249 55.7329 7.29736 55.7329 7.29736H43.2314V10.0235L45.3242 10.6843C47.0314 11.235 47.0314 11.4003 47.0314 12.6394V24.48C47.0314 25.7466 47.0314 25.8017 45.3242 26.3524L43.2314 26.9582V29.7119H57.4952V26.9582L55.4025 26.3524C53.6952 25.8017 53.6952 25.7466 53.6952 24.48V21.6437C53.9155 21.6437 57.0822 21.6437 57.0822 21.6437C60.1938 21.5887 62.6996 21.3959 64.9575 20.1292C67.1054 18.9177 68.2619 16.6597 68.2619 14.3191C68.2894 10.5466 65.288 7.98577 59.8633 7.43504ZM60.3865 17.3481C60.001 17.7061 59.0923 18.1466 58.3764 18.3394C56.3938 18.835 53.8329 18.6423 53.7227 18.6423V10.2162C55.4025 10.2162 58.3488 9.96838 60.2488 11.3177C61.1851 11.9785 61.7358 13.0524 61.7633 14.4292C61.7909 15.393 61.4329 16.4669 60.3865 17.3481Z" fill="#BE9F56"/>
<path d="M18.9995 0C8.50821 0 -0.000488281 8.5087 -0.000488281 19C-0.000488281 29.4638 8.50821 38 18.9995 38C29.4633 38 37.9995 29.4913 37.9995 19C37.972 8.5087 29.4633 0 18.9995 0Z" fill="#BE9F56"/>
<path d="M18.9722 1.73486C9.44471 1.73486 1.70703 9.50008 1.70703 19.0276C1.70703 28.5552 9.47225 36.3204 18.9998 36.3204C28.5273 36.3204 36.2925 28.5552 36.2925 19.0276C36.265 9.50008 28.5273 1.73486 18.9722 1.73486Z" fill="#11264B"/>
<path d="M18.9994 31.6941C25.9661 31.6941 31.6385 26.0216 31.6385 19.055C31.6385 12.0883 25.9661 6.44336 18.9994 6.44336C12.0327 6.44336 6.3878 12.1158 6.3878 19.055C6.36026 26.0216 12.0327 31.6941 18.9994 31.6941Z" fill="#BE9F56"/>
<path fill-rule="evenodd" clip-rule="evenodd" d="M18.9169 7.35205C17.6227 7.35205 16.5488 8.42596 16.5488 9.72017C16.5488 11.0144 17.6227 12.0883 18.9169 12.0883C20.2111 12.0883 21.2851 11.0144 21.2851 9.72017C21.2851 8.39843 20.2111 7.35205 18.9169 7.35205ZM17.7604 10.8216C17.6227 10.8216 17.5126 10.7115 17.43 10.6013C17.3474 10.4912 17.2923 10.3535 17.2923 10.1883C17.5126 10.2984 17.7604 10.4086 18.0358 10.4636C18.0358 10.6289 17.9532 10.8216 17.7604 10.8216ZM19.3575 10.9318C19.2474 11.0419 19.1097 11.097 18.8894 11.097C18.6967 11.097 18.5314 11.0144 18.4488 10.9318C18.3387 10.8216 18.2561 10.6839 18.2561 10.4912C18.6416 10.5463 19.1648 10.5463 19.5503 10.4912C19.5503 10.6839 19.4677 10.8216 19.3575 10.9318ZM20.4039 10.6013C20.3213 10.7115 20.2387 10.8216 20.0735 10.8216C19.9909 10.8216 19.9358 10.7941 19.8807 10.739C19.7981 10.6839 19.7706 10.5738 19.7706 10.4361C20.0459 10.381 20.2938 10.2984 20.514 10.1607C20.5416 10.326 20.4865 10.4912 20.4039 10.6013ZM20.514 10.1883C20.514 10.0781 20.4865 9.99553 20.4314 9.94046C20.3764 9.88538 20.3213 9.83031 20.2111 9.80278C20.0459 9.80278 19.9358 9.91292 19.8807 10.0231C19.7981 10.1332 19.7706 10.2984 19.7706 10.4636C19.7155 10.4636 19.6329 10.4912 19.5503 10.4912C19.5503 10.2984 19.4677 10.1607 19.3575 10.0506C19.2474 9.94046 19.1097 9.88538 18.8894 9.88538C18.6967 9.88538 18.559 9.96799 18.4488 10.0506C18.3387 10.1607 18.2561 10.2984 18.2561 10.4912C18.1735 10.4912 18.1184 10.4636 18.0358 10.4636C18.0358 10.1883 17.9256 9.96799 17.7604 9.85785C17.6503 9.80278 17.5126 9.80278 17.43 9.88538C17.3474 9.96799 17.2923 10.0506 17.2923 10.1883C17.2923 10.1883 16.9894 9.94046 16.9343 9.85785C16.9343 9.83031 16.9343 9.77524 16.9343 9.72017C16.9343 8.64625 17.8155 7.73756 18.9169 7.73756C20.0184 7.73756 20.8996 8.61872 20.8996 9.72017C20.8996 9.7477 20.8996 9.77524 20.8996 9.80278C20.8445 9.88538 20.7343 10.0231 20.514 10.1883ZM18.8894 8.7564C18.6967 8.7564 18.559 8.83901 18.4488 8.94915C18.3387 9.0593 18.2836 9.16944 18.2836 9.33466C18.6691 9.38973 19.1372 9.3622 19.5227 9.33466C19.4952 9.16944 19.4401 9.03176 19.33 8.92162C19.2474 8.83901 19.0822 8.7564 18.8894 8.7564ZM17.8706 8.78393C17.7604 8.7564 17.6227 8.81147 17.5677 8.86654C17.4851 8.94915 17.43 9.0593 17.4025 9.16944C17.6227 9.22451 17.8706 9.27959 18.1184 9.30712C18.1184 9.08683 18.0633 8.83901 17.8706 8.78393ZM20.0184 8.7564C19.7981 8.78393 19.688 9.03176 19.743 9.30712C19.9909 9.27959 20.2387 9.22451 20.459 9.16944C20.4314 9.0593 20.4039 8.97669 20.3488 8.92162C20.2662 8.83901 20.1561 8.7564 20.0184 8.7564Z" fill="#11264B"/>
<path d="M16.5212 15.4479L12.8038 10.0233C12.8038 10.0233 12.4183 9.96819 12.0603 10.216C11.7023 10.4363 11.6197 10.8218 11.6197 10.8218L15.6125 16.0262C15.8879 15.8059 16.1908 15.6131 16.5212 15.4479ZM22.5792 15.7784L26.4067 10.8218C26.4067 10.8218 26.3241 10.4363 25.9661 10.216C25.6081 9.99572 25.2226 10.0233 25.2226 10.0233L21.5879 15.3102C22.1386 15.503 22.469 15.7233 22.5241 15.7508L22.5792 15.7784ZM13.9879 26.4073C13.8226 26.3247 13.5748 26.2146 13.1067 26.132C12.5835 26.0218 12.4183 26.0494 12.1705 26.0494C11.3719 26.1044 10.8763 26.5175 10.8487 26.5175L10.7661 26.6001L10.7937 26.7102C10.8763 27.0407 11.0965 27.8117 11.4821 27.9218C11.5096 27.9218 12.2531 28.087 12.8038 28.087C13.7125 28.1146 14.0154 27.9218 14.0705 27.8943L14.098 27.8668L17.2096 22.8827C17.0444 22.8276 16.8792 22.7726 16.7139 22.7175C15.9705 23.8189 14.1531 26.2146 13.9879 26.4073ZM27.1502 26.545C27.1226 26.5175 26.6545 26.132 25.8284 26.0769C25.5806 26.0494 25.4154 26.0494 24.8922 26.1595C24.4241 26.2697 24.1763 26.3523 24.011 26.4349C23.8734 26.2421 22.2487 24.0943 21.3951 22.9653C21.2299 23.0204 21.0371 23.0479 20.8444 23.0755L23.8734 27.8943L23.9009 27.9218C23.9284 27.9494 24.2589 28.1146 25.1676 28.1146C25.7458 28.1146 26.4618 27.9494 26.4893 27.9494C26.8748 27.8392 27.0951 27.0682 27.1777 26.7378L27.2052 26.6276L27.1502 26.545Z" fill="#11264B"/>
<path d="M19.6052 14.8969C19.8806 13.8781 20.4038 13.052 20.4038 13.052V12.5288C18.8067 12.639 17.4023 12.5288 17.4023 12.5288V13.052C17.4023 13.052 17.898 13.8781 18.2009 14.952C18.5313 14.8969 18.8618 14.8694 19.2197 14.8694C19.3574 14.8969 19.4951 14.8969 19.6052 14.8969Z" fill="#11264B"/>
<path d="M16.6039 29.3262V27.6465H16.4111L15.6401 28.1146V28.3624L16.0256 28.1421C16.0256 28.1421 16.0256 28.1421 16.0532 28.1421V29.3262C16.0532 29.4914 16.0532 29.4914 15.8604 29.5465L15.6401 29.6016V29.7943H15.7778H16.2459H16.9894V29.6016L16.714 29.5189C16.6039 29.4914 16.6039 29.4914 16.6039 29.3262Z" fill="#11264B"/>
<path d="M20.0458 29.3262V27.6465H19.853L19.082 28.1146V28.3624L19.4675 28.1421C19.4675 28.1421 19.4675 28.1421 19.4951 28.1421V29.3262C19.4951 29.4914 19.4951 29.4914 19.3023 29.5465L19.082 29.6016V29.7943H19.2197H19.6878H20.4313V29.6016L20.1559 29.5189C20.0458 29.4914 20.0458 29.4914 20.0458 29.3262Z" fill="#11264B"/>
<path d="M18.0082 27.6738C17.485 27.6738 17.1821 27.9217 17.1821 28.3622C17.1821 28.7477 17.43 28.9956 17.843 28.9956C18.0082 28.9956 18.1459 28.9405 18.2836 28.8854C18.256 29.2985 17.9807 29.5738 17.5952 29.5738C17.5126 29.5738 17.43 29.5463 17.3198 29.5188L17.2647 29.4912L17.1821 29.7115L17.2372 29.739C17.4024 29.8217 17.5676 29.8492 17.7329 29.8492C18.3937 29.8492 18.8343 29.3535 18.8343 28.5825C18.8618 28.0043 18.5589 27.6738 18.0082 27.6738ZM18.2836 28.6101C18.1734 28.6651 18.1184 28.6927 18.0358 28.6927C17.8981 28.6927 17.7604 28.6376 17.7604 28.2796C17.7604 28.1144 17.7879 27.9217 18.0082 27.9217C18.201 27.9217 18.2836 28.1419 18.2836 28.555C18.2836 28.555 18.2836 28.5825 18.2836 28.6101Z" fill="#11264B"/>
<path d="M21.6155 28.5277C21.4503 28.5277 21.3126 28.5828 21.1749 28.6379C21.23 28.1973 21.4503 27.922 21.8633 27.922C21.946 27.922 22.0286 27.922 22.1387 27.977L22.1938 28.0046L22.2764 27.8118L22.2213 27.7843C22.0561 27.7292 21.8909 27.7017 21.6981 27.7017C21.0373 27.7017 20.5967 28.1973 20.5967 28.9683C20.5967 29.5466 20.8996 29.8495 21.4778 29.8495C21.9735 29.8495 22.2764 29.5741 22.2764 29.1611C22.2489 28.7756 22.001 28.5277 21.6155 28.5277ZM21.4503 29.6017C21.3126 29.6017 21.1474 29.5191 21.1474 28.9683C21.1474 28.9683 21.1474 28.9408 21.1474 28.9133C21.23 28.8582 21.3126 28.8306 21.3952 28.8306C21.5054 28.8306 21.6706 28.8582 21.6706 29.2162C21.6706 29.464 21.6155 29.6017 21.4503 29.6017Z" fill="#11264B"/>
<path d="M18.9722 5.72754C11.6475 5.72754 5.69971 11.6754 5.69971 19C5.69971 26.3246 11.6475 32.2725 18.9722 32.2725C26.2968 32.2725 32.2446 26.3246 32.2446 19C32.2722 11.7029 26.2968 5.72754 18.9722 5.72754ZM18.9997 31.6942C12.033 31.6942 6.38811 26.0217 6.38811 19.0551C6.36058 12.1159 12.033 6.44348 18.9997 6.44348C25.9664 6.44348 31.6388 12.1159 31.6388 19.0551C31.6113 26.0217 25.9664 31.6942 18.9997 31.6942Z" fill="white"/>
<path d="M18.9997 1.01904C9.08667 1.01904 1.01855 9.08716 1.01855 19.0002C1.01855 28.9132 9.08667 36.9814 18.9997 36.9814C28.9128 36.9814 36.9809 28.9132 36.9809 19.0002C36.9809 9.08716 28.9128 1.01904 18.9997 1.01904ZM18.9722 36.3205C9.44464 36.3205 1.67942 28.5553 1.67942 19.0277C1.67942 9.5002 9.44464 1.73499 18.9722 1.73499C28.4997 1.73499 36.2649 9.5002 36.2649 19.0277C36.2649 28.5553 28.5273 36.3205 18.9722 36.3205Z" fill="white"/>
<path d="M10.8763 30.7855C10.4082 30.4551 9.80239 30.5928 9.49949 31.0333C9.19659 31.4739 9.30674 32.0797 9.77485 32.3826C10.2705 32.7131 10.8488 32.5754 11.1517 32.1348C11.4821 31.6942 11.372 31.116 10.8763 30.7855ZM10.8212 31.9145C10.6285 32.1899 10.298 32.2725 10.0227 32.0797C9.74732 31.887 9.69225 31.529 9.885 31.2812C10.0778 31.0058 10.4082 30.9232 10.6836 31.116C10.9314 31.2812 10.9864 31.6391 10.8212 31.9145Z" fill="white"/>
<path d="M11.3721 33.3191L11.73 33.4843L12.0605 32.8234L12.859 33.2089L13.0242 32.8785L12.1982 32.493L12.3909 32.135L13.2996 32.5481L13.4648 32.2176L12.1706 31.6118L11.3721 33.3191Z" fill="white"/>
<path d="M15.6128 32.8784L14.4287 34.5581L14.8418 34.6407L15.0896 34.2552L15.8606 34.4204L15.9432 34.861L16.3562 34.9436L15.9707 32.9335L15.6128 32.8784ZM15.3099 33.9248L15.6954 33.3741L15.8055 34.0349L15.3099 33.9248Z" fill="white"/>
<path d="M18.0909 34.0348L17.6503 33.2087L17.1822 33.1812L17.0996 35.0812H17.4851L17.5677 33.8696L18.0358 34.6956H18.0634L18.6141 33.9246L18.559 35.1362L18.9721 35.1638L19.0822 33.2913L18.6141 33.2638L18.0909 34.0348Z" fill="white"/>
<path d="M20.2387 34.7231L20.1836 34.3376L21.0648 34.255L21.0373 33.897L20.1561 33.9796L20.1286 33.5941L21.1199 33.4839L21.0923 33.126L19.688 33.2637L19.8532 35.1361L21.2851 34.9984L21.2576 34.6405L20.2387 34.7231Z" fill="white"/>
<path d="M23.3231 33.2637C23.268 33.0984 23.1854 32.9608 23.0752 32.8782C22.9376 32.7956 22.7173 32.768 22.497 32.8231L21.6709 33.0158L22.1115 34.8332L22.5245 34.7231L22.3868 34.1448L22.6897 34.0622L23.2129 34.5579L23.681 34.4477L23.0752 33.897C23.268 33.7869 23.3781 33.5666 23.3231 33.2637ZM22.6622 33.7318L22.2492 33.8419L22.1115 33.3187L22.497 33.2086C22.6897 33.1535 22.8274 33.2086 22.8825 33.4013C22.9376 33.539 22.855 33.6767 22.6622 33.7318Z" fill="white"/>
<path d="M24.1424 32.3115L23.7549 32.4545L24.4031 34.211L24.7906 34.068L24.1424 32.3115Z" fill="white"/>
<path d="M26.2694 33.0161C25.994 33.1538 25.6636 33.0161 25.5259 32.7408C25.3882 32.4654 25.4708 32.1074 25.7462 31.9697C25.9114 31.8871 26.0766 31.8871 26.2694 31.9422L26.3795 31.5567C26.1592 31.4741 25.9114 31.4741 25.581 31.6393C25.0578 31.8871 24.8926 32.4654 25.1404 32.9611C25.3882 33.4292 25.9389 33.6495 26.4346 33.3741C26.765 33.2089 26.9027 32.9886 26.9578 32.7132L26.5998 32.6031C26.5447 32.7683 26.4621 32.906 26.2694 33.0161Z" fill="white"/>
<path d="M27.1777 30.6754L27.6183 32.6855L27.9487 32.4377L27.8386 31.9971L28.4719 31.529L28.8574 31.7768L29.2154 31.529L27.4531 30.4551L27.1777 30.6754ZM28.1966 31.3087L27.7835 31.6116L27.6183 30.9783L28.1966 31.3087Z" fill="white"/>
<path d="M7.24165 28.1698L7.0489 27.922C6.80107 27.5915 6.41557 27.4538 6.05759 27.7292C5.7547 27.9495 5.69962 28.335 5.97499 28.693L6.4431 29.2988L7.95759 28.1698L7.70977 27.8118L7.24165 28.1698ZM6.49817 28.7481L6.30542 28.5002C6.16774 28.335 6.16774 28.1698 6.33296 28.0596C6.47064 27.9495 6.63586 27.977 6.77354 28.1423L6.96629 28.4176L6.49817 28.7481Z" fill="white"/>
<path d="M6.55344 26.132L6.03025 26.4349L5.86504 26.1596L6.19547 25.5262L5.97518 25.0581L5.61721 25.774C5.42446 25.6088 5.17663 25.5538 4.90127 25.6914C4.73605 25.774 4.65344 25.9117 4.59837 26.0494C4.5433 26.2146 4.57083 26.4074 4.70852 26.6277L5.12156 27.3711L6.77373 26.4625L6.55344 26.132ZM5.2317 26.848L5.03895 26.49C4.9288 26.3248 4.95634 26.1596 5.12156 26.0769C5.25924 25.9943 5.42446 26.0494 5.50707 26.2146L5.69982 26.5726L5.2317 26.848Z" fill="white"/>
<path d="M4.87328 24.948C5.36894 24.7828 5.6443 24.2321 5.45154 23.6814C5.25879 23.1307 4.70807 22.8828 4.21241 23.048C3.71676 23.2133 3.4414 23.764 3.63415 24.3147C3.79937 24.8654 4.37763 25.1133 4.87328 24.948ZM4.7356 24.535C4.4327 24.6451 4.10227 24.5075 3.99213 24.2046C3.88198 23.9017 4.0472 23.5712 4.3501 23.4611C4.65299 23.3509 4.98343 23.4886 5.09357 23.7915C5.20372 24.122 5.0385 24.4249 4.7356 24.535Z" fill="white"/>
<path d="M4.90096 21.7264L4.18502 21.8641L4.0198 20.9829L3.66183 21.038L3.79951 21.9191L3.41401 22.0018L3.22125 20.9829L2.86328 21.0655L3.11111 22.4699L4.98357 22.1394L4.90096 21.7264Z" fill="white"/>
<path d="M4.62559 18.7246H4.24008L4.29515 19.7434L3.88211 19.771L3.85457 18.8623L3.4966 18.8898L3.52414 19.771L3.13863 19.7985L3.11109 18.7797L2.72559 18.8072L2.78066 20.2116L4.68066 20.1565L4.62559 18.7246Z" fill="white"/>
<path d="M3.30389 18.0086C3.6894 18.0362 3.79954 17.8159 3.93722 17.4579C4.04737 17.155 4.10244 17.0999 4.21259 17.0999C4.32273 17.0999 4.3778 17.2101 4.35027 17.4028C4.32273 17.6231 4.21259 17.7884 4.07491 17.926L4.35027 18.2014C4.57056 18.0086 4.70824 17.7057 4.73578 17.4304C4.79085 17.0173 4.59809 16.7144 4.21259 16.6869C3.88215 16.6594 3.71693 16.8521 3.57925 17.2101C3.46911 17.513 3.41404 17.5956 3.30389 17.5956C3.22128 17.5956 3.13867 17.4855 3.16621 17.3478C3.19375 17.1826 3.27635 17.0449 3.41404 16.8797L3.11114 16.6318C2.94592 16.7971 2.83577 17.0173 2.80824 17.2927C2.75317 17.6782 2.97346 17.9811 3.30389 18.0086Z" fill="white"/>
<path d="M3.57916 15.9161C3.93713 15.9987 4.10235 15.8059 4.2951 15.4479C4.46032 15.1726 4.51539 15.1175 4.62553 15.1451C4.73568 15.1726 4.76322 15.2827 4.73568 15.4479C4.68061 15.6682 4.54293 15.8059 4.37771 15.9436L4.598 16.2465C4.84582 16.0813 5.01104 15.8059 5.09365 15.5306C5.2038 15.1451 5.06611 14.8146 4.68061 14.732C4.35017 14.6494 4.18495 14.8422 3.9922 15.1726C3.82698 15.4755 3.77191 15.5306 3.66177 15.503C3.57916 15.4755 3.52408 15.3929 3.55162 15.2277C3.57916 15.0624 3.6893 14.9248 3.85452 14.7871L3.60669 14.5117C3.41394 14.6494 3.27626 14.8697 3.19365 15.1451C3.08351 15.503 3.24872 15.8335 3.57916 15.9161Z" fill="white"/>
<path d="M5.56211 13.8782L3.79979 13.2173L3.66211 13.6028L5.42443 14.2637L5.56211 13.8782Z" fill="white"/>
<path d="M4.92882 12.8321C5.39694 13.0799 5.9752 12.9147 6.25056 12.3915C6.52593 11.8683 6.33317 11.2901 5.83752 11.0423C5.3694 10.7944 4.79114 10.9596 4.51578 11.4828C4.26795 12.006 4.46071 12.5843 4.92882 12.8321ZM4.87375 11.6756C5.03897 11.3727 5.3694 11.2901 5.6723 11.4278C5.94766 11.5654 6.08535 11.8959 5.92013 12.1988C5.75491 12.5017 5.42448 12.5843 5.12158 12.4466C4.84621 12.3089 4.70853 11.9785 4.87375 11.6756Z" fill="white"/>
<path d="M7.2965 10.6566L6.33273 9.94067H7.84722L8.06751 9.63777L6.55302 8.50879L6.30519 8.83922L7.24143 9.52763H5.78201L5.53418 9.83053L7.04867 10.987L7.2965 10.6566Z" fill="white"/>
<path d="M8.70097 8.94932L8.53575 8.53627L9.11401 7.98555L9.52706 8.1783L9.85749 7.8754L7.95749 7.04932L7.68213 7.32468L8.39807 9.25222L8.70097 8.94932ZM8.78358 7.82033L8.42561 8.15077L8.17778 7.54497L8.78358 7.82033Z" fill="white"/>
<path d="M11.3995 6.77372L11.2067 6.47082L10.4082 6.99401L9.55456 5.75488L9.22412 6.00271L10.298 7.54474L11.3995 6.77372Z" fill="white"/>
<path d="M12.3908 5.17701C12.6111 5.7002 13.1343 5.92049 13.685 5.7002C14.0155 5.56252 14.2082 5.34223 14.3184 5.12194L14.0155 4.35092L13.2444 4.65382L13.3821 4.98426L13.7676 4.81904L13.8778 5.06687C13.7952 5.17701 13.685 5.25962 13.5473 5.31469C13.2444 5.45237 12.914 5.28716 12.8039 4.98426C12.6937 4.68136 12.8039 4.35092 13.0792 4.24078C13.272 4.15817 13.4372 4.18571 13.6024 4.24078L13.7401 3.85527C13.4923 3.77266 13.272 3.77266 12.9691 3.88281C12.4184 4.1031 12.1981 4.68136 12.3908 5.17701Z" fill="white"/>
<path d="M14.7592 4.26802C14.8693 4.79121 15.365 5.12164 15.9432 5.0115C16.5215 4.90135 16.8244 4.37816 16.7143 3.85497C16.6041 3.33179 16.1085 3.00135 15.5302 3.1115C14.9519 3.22164 14.649 3.74483 14.7592 4.26802ZM15.6128 3.46947C15.9432 3.38686 16.2186 3.60715 16.3012 3.93758C16.3563 4.24048 16.1911 4.57092 15.8606 4.62599C15.5302 4.7086 15.2548 4.48831 15.1722 4.15787C15.1172 3.85497 15.2824 3.55208 15.6128 3.46947Z" fill="white"/>
<path d="M18.8896 4.65352L18.8621 4.26801L17.9258 4.32309L17.8432 2.80859L17.4302 2.83613L17.5128 4.73613L18.8896 4.65352Z" fill="white"/>
<path d="M19.9085 3.96531L20.8172 4.04792L20.8448 3.66241L19.9361 3.5798L19.9636 3.19429L20.9825 3.2769L21.01 2.89139L19.5781 2.78125L19.4404 4.65371L19.8535 4.70879L19.9085 3.96531Z" fill="white"/>
<path d="M22.9098 4.81866L21.9185 4.59837L22.0011 4.21287L22.8823 4.40562L22.9649 4.04765L22.0837 3.8549L22.1663 3.46939L23.1576 3.71721L23.2402 3.33171L21.8359 3.02881L21.4229 4.87374L22.8272 5.17663L22.9098 4.81866Z" fill="white"/>
<path d="M24.0386 4.9567L24.3415 5.06684L24.5067 5.78278L24.9473 5.948L24.7545 5.14945C25.0024 5.14945 25.2227 5.03931 25.3328 4.76394C25.3879 4.59873 25.3879 4.43351 25.3328 4.29583C25.2502 4.13061 25.1125 3.99293 24.8922 3.91032L24.0937 3.60742L23.4053 5.36974L23.7908 5.50742L24.0386 4.9567ZM24.369 4.10307L24.7545 4.24075C24.9473 4.32336 25.0299 4.43351 24.9473 4.59873C24.8922 4.73641 24.7545 4.79148 24.5618 4.73641L24.1763 4.57119L24.369 4.10307Z" fill="white"/>
<path d="M26.0211 6.58092C26.3791 6.77367 26.7371 6.74613 26.9023 6.4157C27.0675 6.14034 26.9574 5.89251 26.6545 5.61715C26.4066 5.39686 26.3516 5.31425 26.4342 5.2041C26.4892 5.1215 26.5994 5.09396 26.7371 5.17657C26.8748 5.25918 26.9849 5.39686 27.0675 5.58961L27.3979 5.42439C27.3153 5.2041 27.1501 5.01135 26.9023 4.87367C26.5719 4.68092 26.2139 4.73599 26.0487 5.03889C25.8559 5.36932 26.0211 5.58961 26.2965 5.83744C26.5443 6.05773 26.5719 6.14034 26.5168 6.22295C26.4617 6.30555 26.3516 6.33309 26.1863 6.25048C25.9936 6.14034 25.8834 5.97512 25.8008 5.78237L25.4429 5.92005C25.553 6.19541 25.7733 6.44324 26.0211 6.58092Z" fill="white"/>
<path d="M28.3344 6.22309L28.5547 5.92019L28.1967 5.67236L27.9489 6.03033L28.0866 6.14048C28.004 6.27816 27.8663 6.3057 27.7286 6.19555L27.646 6.36077C27.8938 6.52599 28.1141 6.52599 28.3344 6.22309Z" fill="white"/>
<path d="M29.3531 8.56378L29.9039 9.14204L29.7111 9.55508L30.014 9.85798L30.8401 7.95798L30.5647 7.68262L28.6372 8.39856L28.9401 8.70146L29.3531 8.56378ZM30.3169 8.17827L30.0416 8.78407L29.6836 8.4261L30.3169 8.17827Z" fill="white"/>
<path d="M30.4544 10.0233C30.4269 10.3262 30.5095 10.6291 30.6747 10.8494C30.895 11.1798 31.253 11.2899 31.5559 11.0697C31.8313 10.8769 31.8037 10.6291 31.666 10.2436C31.5559 9.94067 31.5284 9.83052 31.6385 9.77545C31.7211 9.72038 31.8313 9.74791 31.9139 9.8856C31.9965 10.0233 32.0515 10.1885 32.0515 10.3812H32.4371C32.4646 10.1334 32.382 9.88559 32.2443 9.6653C32.024 9.36241 31.6936 9.25226 31.3907 9.44501C31.0878 9.6653 31.1428 9.91313 31.2805 10.2986C31.3907 10.6015 31.3907 10.6841 31.3081 10.7392C31.2255 10.7943 31.1153 10.7668 31.0052 10.6291C30.8675 10.4639 30.8399 10.2436 30.8675 10.0233H30.4544Z" fill="white"/>
<path d="M32.3269 12.0608C32.4095 12.3913 32.382 12.4463 32.2718 12.5014C32.1617 12.5565 32.0791 12.5014 31.9965 12.3362C31.8863 12.1434 31.8863 11.9507 31.9414 11.7304L31.5559 11.6478C31.4733 11.9507 31.5284 12.2536 31.666 12.5014C31.8588 12.8594 32.1617 13.0246 32.4921 12.8594C32.795 12.7217 32.795 12.4463 32.7124 12.0608C32.6298 11.7304 32.6298 11.6478 32.74 11.5927C32.8226 11.5376 32.9327 11.5927 32.9878 11.7304C33.0704 11.8681 33.0704 12.0608 33.0429 12.2536L33.4284 12.3087C33.4834 12.0608 33.4559 11.813 33.3182 11.5652C33.153 11.2347 32.8226 11.0695 32.5197 11.2347C32.2168 11.4 32.2168 11.6753 32.3269 12.0608Z" fill="white"/>
<path d="M33.0981 13.3002C32.5749 13.4655 32.2995 13.9887 32.4923 14.5394C32.685 15.0901 33.2357 15.3655 33.7314 15.2002C34.2546 15.035 34.5299 14.5118 34.3372 13.9611C34.172 13.3829 33.6213 13.135 33.0981 13.3002ZM33.2633 13.7133C33.5662 13.6031 33.8966 13.7408 34.0068 14.0713C34.1169 14.3742 33.9242 14.7046 33.6213 14.7872C33.3184 14.8973 32.9879 14.7597 32.8778 14.4292C32.7676 14.1263 32.9328 13.7959 33.2633 13.7133Z" fill="white"/>
<path d="M33.8692 15.8609C33.3184 15.9436 32.9605 16.4117 33.0431 16.9624C33.0982 17.3204 33.2634 17.5131 33.4837 17.6783L33.704 17.3754C33.5387 17.2378 33.4561 17.1276 33.4011 16.9073C33.346 16.5769 33.5938 16.3291 33.8967 16.274C34.2271 16.2189 34.5025 16.4117 34.5576 16.7421C34.5851 16.9349 34.53 17.1001 34.4199 17.2378L34.7503 17.458C34.888 17.2653 34.9706 17.045 34.9155 16.687C34.9155 16.1363 34.4199 15.8059 33.8692 15.8609Z" fill="white"/>
<path d="M35.1033 18.2847L33.2041 18.3409L33.2163 18.7538L35.1156 18.6976L35.1033 18.2847Z" fill="white"/>
<path d="M33.2085 19.7158L33.6215 19.9361L33.5389 20.7346L33.0983 20.8723L33.0708 21.3129L35.0259 20.6795L35.0534 20.294L33.236 19.3027L33.2085 19.7158ZM33.9795 20.1013L34.5578 20.4042L33.9244 20.5969L33.9795 20.1013Z" fill="white"/>
<path d="M34.365 22.3596L32.9056 22.0015L32.7954 22.4146L34.2824 22.7451L34.1447 23.3233L34.5302 23.4059L34.8606 21.8639L34.5027 21.7812L34.365 22.3596Z" fill="white"/>
<path d="M32.476 23.519L32.3389 23.9086L34.1311 24.5394L34.2683 24.1498L32.476 23.519Z" fill="white"/>
<path d="M32.9878 24.9477C32.4922 24.6999 31.9415 24.8926 31.6661 25.3883C31.3907 25.9114 31.611 26.4897 32.0791 26.7375C32.5473 26.9854 33.1255 26.7926 33.4009 26.2694C33.6762 25.7462 33.456 25.168 32.9878 24.9477ZM33.0704 26.1042C32.9328 26.4071 32.5748 26.4897 32.2719 26.352C31.9965 26.2143 31.8589 25.8839 31.9965 25.581C32.1618 25.2781 32.4922 25.1955 32.7951 25.3332C33.098 25.4709 33.2081 25.8013 33.0704 26.1042Z" fill="white"/>
<path d="M30.6748 27.1507L31.6111 27.8667H30.1241L29.9038 28.1696L31.4183 29.2986L31.6661 28.9681L30.7299 28.2797L32.1893 28.2522L32.4096 27.9493L30.8951 26.8203L30.6748 27.1507Z" fill="white"/>
<path d="M22.2211 19.8535L22.8269 19.6607V18.8897H18.8617V19.6607L19.4675 19.8535C19.9081 19.9912 19.9081 20.0462 19.9081 20.3767V21.4231C19.6878 21.4781 19.2748 21.4781 18.9994 21.4231C17.5675 21.2028 17.1545 20.1564 17.1545 19.0549C17.1545 18.4216 17.3748 17.8709 17.8429 17.4028C18.1733 17.0723 18.6965 16.7694 19.4951 16.797C19.8255 16.797 20.2385 16.9622 20.3762 17.0723C20.7617 17.3477 20.8719 17.6781 20.9545 18.0636H22.0284V16.4941C22.0284 16.4941 21.0095 15.8057 19.2197 15.8057C17.8153 15.8057 15.0342 16.3839 15.0342 19.1375C15.0342 20.8173 16.4661 22.139 18.9168 22.2767C20.624 22.3593 21.7806 21.8636 21.7806 21.8636V20.3767C21.7806 20.0187 21.8081 19.9912 22.2211 19.8535Z" fill="white"/>
<path d="M12.4183 15.9436C12.1154 15.916 11.2617 15.916 11.2617 15.916H7.76465V16.687L8.34291 16.8798C8.81102 17.045 8.81102 17.0725 8.81102 17.4305V20.7624C8.81102 21.1204 8.81102 21.1204 8.34291 21.2856L7.76465 21.4508V22.2218H11.7574V21.4508L11.1791 21.2856C10.711 21.1204 10.711 21.1204 10.711 20.7624V19.9638C10.7661 19.9638 11.6473 19.9638 11.6473 19.9638C12.5284 19.9638 13.2168 19.8812 13.8502 19.5508C14.456 19.2204 14.7864 18.587 14.7864 17.9262C14.7589 16.8247 13.9328 16.1088 12.4183 15.9436ZM12.556 18.7247C12.4458 18.8349 12.198 18.945 11.9777 19.0001C11.427 19.1378 10.711 19.0827 10.6835 19.0827V16.7146C11.1516 16.7146 11.9777 16.632 12.5009 17.0175C12.7487 17.2102 12.9139 17.5131 12.9139 17.8986C12.9415 18.174 12.8313 18.4769 12.556 18.7247Z" fill="white"/>
<path d="M30.2069 21.258C29.8489 21.1204 29.7663 21.0653 29.6562 20.845L27.1779 15.916H26.1591L23.3779 20.9551C23.2678 21.1479 23.1852 21.1754 22.9649 21.258L22.3315 21.4508V22.1943H25.4156V21.4508L24.7272 21.2856C24.5895 21.258 24.5895 21.1479 24.6171 21.0928C24.6171 21.0928 24.6997 20.9276 24.8373 20.6798H27.3982C27.5359 20.9276 27.5634 20.9827 27.6185 21.0928C27.6736 21.2305 27.5634 21.2856 27.3982 21.3407L26.7924 21.5059V22.2493H30.7301V21.5334C30.7301 21.4508 30.2069 21.258 30.2069 21.258ZM25.1402 20.0189C25.5533 19.2479 26.104 18.1464 26.1591 18.0914C26.1866 18.174 26.7098 19.2479 27.0953 20.0189H25.1402Z" fill="white"/>
<path d="M127.465 27.9769H126.804V27.6465H128.483V27.9769H127.823V29.7117H127.465V27.9769Z" fill="#BE9F56"/>
<path d="M128.814 27.6465H129.199L129.833 28.6103L130.466 27.6465H130.852V29.7117H130.466V28.2247L129.833 29.1885H129.805L129.172 28.2247V29.7117H128.814V27.6465Z" fill="#BE9F56"/>
</g>
</g>
<defs>
<clipPath id="clip0_1_2662">
<rect width="131" height="38" fill="white"/>
</clipPath>
</defs>
</svg>
