<svg width="24" height="24" viewBox="0 0 24 24" fill="none" xmlns="http://www.w3.org/2000/svg">
<mask id="mask0_1_2556" style="mask-type:luminance" maskUnits="userSpaceOnUse" x="0" y="0" width="24" height="24">
<path d="M23.4414 0H0V23.4414H23.4414V0Z" fill="white"/>
</mask>
<g mask="url(#mask0_1_2556)">
<path d="M13.6738 0H2.92985C2.67081 0 2.42237 0.102905 2.2392 0.286076C2.05603 0.469247 1.95313 0.71768 1.95312 0.976723V22.4646C1.95312 22.7236 2.05603 22.9721 2.2392 23.1552C2.42237 23.3384 2.67081 23.4413 2.92985 23.4413H20.5109C20.7699 23.4413 21.0183 23.3384 21.2015 23.1552C21.3847 22.9721 21.4876 22.7236 21.4876 22.4646V7.81379H14.6505C14.3915 7.81379 14.1431 7.71088 13.9599 7.52771C13.7767 7.34454 13.6738 7.09611 13.6738 6.83706V0Z" fill="#887EF9"/>
<path d="M20.9149 5.86025H15.627V0.572266L20.9149 5.86025Z" fill="#887EF9"/>
<path d="M7.70628 20.7087C8.92036 20.7087 9.80531 20.0065 10.0394 18.9826H9.07394C8.86185 19.4434 8.41571 19.8091 7.70628 19.8091C6.79938 19.8091 6.10458 19.0996 6.10458 18.1342C6.10458 17.1761 6.79938 16.4594 7.70628 16.4594C8.41571 16.4594 8.86185 16.8251 9.07394 17.2858H10.0394C9.80531 16.2619 8.92036 15.5671 7.70628 15.5671C6.24354 15.5671 5.14648 16.6642 5.14648 18.1342C5.14648 19.6043 6.24354 20.7087 7.70628 20.7087Z" fill="white"/>
<path d="M12.4102 20.7087C13.2952 20.7087 14.1289 20.1309 14.1289 19.2825C14.1289 17.4102 11.5325 17.9806 11.5325 17.0079C11.5325 16.6642 11.8251 16.4009 12.2932 16.4009C12.7759 16.4009 13.0538 16.7373 13.0831 17.1323H14.0485C14.0192 16.3863 13.4634 15.5671 12.2932 15.5671C11.2473 15.5671 10.5964 16.2107 10.5964 17.0079C10.5964 18.8071 13.1928 18.2513 13.1928 19.2825C13.1928 19.6262 12.849 19.8676 12.4102 19.8676C11.8544 19.8676 11.5325 19.5238 11.4814 19.0558H10.5159C10.5379 19.7725 11.0864 20.7087 12.4102 20.7087Z" fill="white"/>
<path d="M16.9265 20.6283L18.7768 15.6404H17.731L16.5169 19.2094C16.4657 19.3557 16.4291 19.4947 16.4218 19.6044H16.4072C16.3926 19.4947 16.356 19.3557 16.3048 19.2094L15.0907 15.6404H14.0522L15.8952 20.6283H16.9265Z" fill="white"/>
</g>
</svg>
